# xmcd
#
# Track frame offsets: 
#        150
#        14422
#        27965
#        42045
#        55707
#        68330
#        86117
#        98935
#        111315
#        125585
#        138790
#        152692
#        165975
#        179442
#        189934
#        202557
#        214747
#        227372
#        241000
#        253435
#
# Disc length: 3556 seconds
#
# Revision: 1
# Processed by: cddbd v1.5.2PL0 Copyright (c) Steve Scherf et al.
# Submitted via: ExactAudioCopy v0.99pb5
#
DISCID=fa0de214
DTITLE=John Lee Hooker - Only Original Hit's CD1
DYEAR=2004
DGENRE=Blues
TTITLE0=Boogie Chillen
TTITLE1=Crawlin' King Snake
TTITLE2=Sally Mae
TTITLE3=Hobo Blues
TTITLE4=Weeping Willow Boogie
TTITLE5=Prison Bound
TTITLE6=Bumblee Bee Blues
TTITLE7=War Is Over (Goodbye California)
TTITLE8=Henry's Swing Club
TTITLE9=Hoogie Boogie
TTITLE10=Alberta
TTITLE11=Momma Poppa Boogie
TTITLE12=Drifting From Door To Door
TTITLE13=Hastings Street Boogie
TTITLE14=Sailing Blues
TTITLE15=Burnin' Hell
TTITLE16=Graveyard Blues
TTITLE17=Black Cat Blues
TTITLE18=Miss Sadie Mae
TTITLE19=Build Myself  a Cave
EXTD=YEAR: 1999 ID3G: 0
EXTT0=
EXTT1=
EXTT2=
EXTT3=
EXTT4=
EXTT5=
EXTT6=
EXTT7=
EXTT8=
EXTT9=
EXTT10=
EXTT11=
EXTT12=
EXTT13=
EXTT14=
EXTT15=
EXTT16=
EXTT17=
EXTT18=
EXTT19=
PLAYORDER=
